<svg width="154" height="27" viewBox="0 0 154 27" fill="none" xmlns="http://www.w3.org/2000/svg">
<path d="M9.32422 20.4219L9.44141 19.2383V17.0469C7.33984 16.9375 5.76953 16.6523 4.73047 16.1914C3.69141 15.7227 2.92578 15.1367 2.43359 14.4336C2.13672 14.0195 1.90625 13.5586 1.74219 13.0508C1.58594 12.5352 1.32422 12.1484 0.957031 11.8906L1.13281 11.6445C1.48438 11.8789 1.86328 11.9961 2.26953 11.9961C2.68359 11.9961 3.21094 11.9805 3.85156 11.9492C4.49219 11.918 5.21484 11.8828 6.01953 11.8438C6.82422 11.7969 7.39844 11.7656 7.74219 11.75C8.08594 11.7344 8.33984 11.6875 8.50391 11.6094C8.66797 11.5234 8.78516 11.3711 8.85547 11.1523L9.38281 11.3281C9.35938 11.3906 9.34766 11.4727 9.34766 11.5742C9.34766 11.832 9.5625 12.125 9.99219 12.4531C10.4219 12.7812 11.1992 12.9453 12.3242 12.9453C13.082 12.9453 13.6211 12.8164 13.9414 12.5586C14.082 12.4414 14.1523 12.3008 14.1523 12.1367C14.1523 11.7539 13.9414 11.5 13.5195 11.375C13.0977 11.25 12.5859 11.1445 11.9844 11.0586C11.3906 10.9648 10.793 10.8906 10.1914 10.8359C9.59766 10.7812 8.95312 10.7031 8.25781 10.6016C7.5625 10.5 6.90625 10.3906 6.28906 10.2734C5.67188 10.1484 5.07031 9.96875 4.48438 9.73438C3.90625 9.5 3.41016 9.22656 2.99609 8.91406C2.58203 8.59375 2.24609 8.1875 1.98828 7.69531C1.73828 7.19531 1.61328 6.62891 1.61328 5.99609C1.61328 5.36328 1.71094 4.78516 1.90625 4.26172C2.10938 3.73828 2.38281 3.28906 2.72656 2.91406C3.07031 2.53906 3.48438 2.20703 3.96875 1.91797C4.46094 1.62891 4.97266 1.39453 5.50391 1.21484C6.04297 1.03516 6.62891 0.890625 7.26172 0.78125C8.36328 0.578125 9.40234 0.476562 10.3789 0.476562C11.3555 0.476562 12.0977 0.492187 12.6055 0.523438C13.1211 0.546875 13.7227 0.597656 14.4102 0.675781C15.1055 0.746094 15.7305 0.867187 16.2852 1.03906C16.8477 1.20312 17.4023 1.41406 17.9492 1.67188C19.0898 2.20312 19.8906 3.02734 20.3516 4.14453C20.5391 4.54297 20.7969 4.91406 21.125 5.25781L20.9727 5.52734C20.6445 5.30078 20.2656 5.1875 19.8359 5.1875H19.6836C19.0586 5.21094 18.1641 5.25781 17 5.32812C15.8438 5.39062 15.0977 5.42969 14.7617 5.44531C14.4336 5.46094 14.1953 5.50781 14.0469 5.58594C13.9062 5.66406 13.8047 5.8125 13.7422 6.03125L13.2266 5.89062C13.25 5.82031 13.2617 5.74609 13.2617 5.66797C13.2617 5.33984 12.9961 5.05859 12.4648 4.82422C11.9336 4.58203 11.332 4.46094 10.6602 4.46094C9.34766 4.46094 8.69141 4.71875 8.69141 5.23438C8.69141 5.69531 9.67578 6.03125 11.6445 6.24219C12.1055 6.29688 12.6289 6.35156 13.2148 6.40625C15.2539 6.61719 16.8164 6.89453 17.9023 7.23828C20.1836 7.95703 21.3242 9.32812 21.3242 11.3516C21.3242 12.1797 21.1523 12.9258 20.8086 13.5898C20.4648 14.2461 20.0156 14.7812 19.4609 15.1953C18.9141 15.6094 18.2656 15.9531 17.5156 16.2266C16.1641 16.7188 14.6211 16.9648 12.8867 16.9648C12.418 16.9648 12.1406 16.9609 12.0547 16.9531C11.6328 16.9531 11.4219 17.2773 11.4219 17.9258V18.207C11.4219 18.418 11.4727 18.7266 11.5742 19.1328C11.6836 19.5469 11.7383 19.8555 11.7383 20.0586C11.7383 20.4727 11.5938 20.6797 11.3047 20.6797C11.1562 20.6797 11.0391 20.6172 10.9531 20.4922C10.875 20.3672 10.8359 20.2109 10.8359 20.0234C10.8359 19.8359 10.8828 19.5156 10.9766 19.0625C11.0781 18.6172 11.1289 18.293 11.1289 18.0898C11.1289 17.8867 11.125 17.7422 11.1172 17.6562C11.1172 17.5781 11.1055 17.4766 11.082 17.3516C11.0664 17.2344 11.0352 17.1484 10.9883 17.0938C10.8789 16.9531 10.6914 16.8828 10.4258 16.8828C9.94141 16.8828 9.69922 17.3047 9.69922 18.1484L9.76953 20.0703C9.76953 20.5859 9.69531 20.8438 9.54688 20.8438C9.39844 20.8438 9.32422 20.7031 9.32422 20.4219ZM29.9961 23.3164L30.125 20.1992C30.125 19.1914 30.0859 18.5547 30.0078 18.2891C29.9375 18.0234 29.8633 17.7891 29.7852 17.5859C29.707 17.3828 29.6055 17.2188 29.4805 17.0938C29.3555 16.9688 29.207 16.8516 29.0352 16.7422C28.707 16.5234 28.1914 16.4141 27.4883 16.4141C26.7852 16.4141 26.1914 16.6992 25.707 17.2695C25.2305 17.8398 24.9922 18.5234 24.9922 19.3203C24.9922 19.6172 25.0508 20.0586 25.168 20.6445C25.2852 21.2383 25.3438 21.6836 25.3438 21.9805C25.3438 22.543 25.1445 22.8242 24.7461 22.8242C24.3477 22.8242 24.1484 22.5508 24.1484 22.0039C24.1484 21.6992 24.207 21.2422 24.3242 20.6328C24.4492 20.0234 24.5117 19.5625 24.5117 19.25L24.5938 16.1094V2.33984C24.5938 1.85547 24.4414 1.46484 24.1367 1.16797L24.3711 0.921875C24.6992 1.23438 25.0898 1.39062 25.543 1.39062H29.7852C30.2539 1.39062 30.6445 1.23438 30.957 0.921875L31.1914 1.16797C30.8867 1.47266 30.7344 1.86328 30.7344 2.33984V16.0508C30.7344 16.457 30.6914 17.1562 30.6055 18.1484C30.5195 19.1484 30.4922 19.918 30.5234 20.457H30.5117C30.8008 21.7539 30.9453 22.7422 30.9453 23.4219C30.9453 24.1016 30.8164 24.4414 30.5586 24.4414C30.1836 24.4414 29.9961 24.0664 29.9961 23.3164ZM39.1484 20.6328L39.4297 17.457C39.4297 17.207 39.2891 17 39.0078 16.8359C38.5469 16.5781 37.9844 16.4492 37.3203 16.4492C36.4297 16.4492 35.8164 16.625 35.4805 16.9766C35.332 17.1328 35.2578 17.3594 35.2578 17.6562C35.2578 17.9609 35.3477 18.4883 35.5273 19.2383C35.707 19.9883 35.7969 20.5156 35.7969 20.8203C35.7969 21.1328 35.7383 21.3789 35.6211 21.5586C35.5117 21.7461 35.3477 21.8398 35.1289 21.8398C34.9102 21.8398 34.7422 21.7461 34.625 21.5586C34.5078 21.3789 34.4492 21.1328 34.4492 20.8203C34.4492 20.5078 34.543 19.9688 34.7305 19.2031C34.9258 18.4375 35.0234 17.8594 35.0234 17.4688L35.0117 3.10156C35.0117 2.17969 34.7305 1.41016 34.168 0.792969L34.4141 0.546875C35.0469 1.10938 35.8164 1.39062 36.7227 1.39062H40.2266C40.7266 1.39062 41.1484 1.33203 41.4922 1.21484C41.8438 1.08984 42.125 0.847656 42.3359 0.488281L42.7227 0.675781C42.5195 1.16016 42.418 1.61719 42.418 2.04688C42.418 2.39844 43.0352 3.28125 44.2695 4.69531C45.8789 6.53906 46.9141 7.77734 47.375 8.41016C47.8359 9.04297 48.1367 9.55469 48.2773 9.94531H48.9805C48.5977 9.38281 48.4062 8.58984 48.4062 7.56641C48.4062 7.08984 48.4648 6.37891 48.582 5.43359C48.6992 4.48047 48.7578 3.76563 48.7578 3.28906C48.7578 2.00781 48.3516 1.17578 47.5391 0.792969L47.7852 0.546875C48.418 1.10938 49.1875 1.39062 50.0938 1.39062H52.4961C53.4023 1.39062 54.1719 1.10938 54.8047 0.546875L55.0391 0.792969C54.4844 1.41797 54.207 2.1875 54.207 3.10156L54.1836 17.4102C54.1836 17.7461 54.2617 18.2461 54.418 18.9102C54.5742 19.582 54.6523 20.0859 54.6523 20.4219C54.6523 20.9219 54.4609 21.1719 54.0781 21.1719C53.6953 21.1719 53.5039 20.9219 53.5039 20.4219C53.5039 20.0938 53.5781 19.6094 53.7266 18.9688C53.875 18.3359 53.9492 17.8984 53.9492 17.6562C53.9492 17.4219 53.8711 17.2539 53.7148 17.1523C53.5586 17.0508 53.4062 17 53.2578 17H48.6289C47.9727 17 47.6445 17.5977 47.6445 18.793C47.6445 19.2852 47.7344 19.9961 47.9141 20.9258C48.1016 21.8633 48.1953 22.5703 48.1953 23.0469C48.1953 23.7266 47.9414 24.0664 47.4336 24.0664C46.9258 24.0664 46.6719 23.7227 46.6719 23.0352C46.6719 22.5977 46.7695 21.9609 46.9648 21.125C47.168 20.2891 47.2734 19.6602 47.2812 19.2383L47.3047 17.6797C47.3281 16.9531 47.2539 16.4805 47.082 16.2617L41.4688 9.14844C41.3203 8.95312 41.1562 8.54688 40.9766 7.92969L40.2617 7.95312C40.668 8.375 40.8711 8.84375 40.8711 9.35938V16.0508L41.0938 21.9805C41.0938 22.1055 41.0547 22.2109 40.9766 22.2969C40.9062 22.3906 40.8047 22.4375 40.6719 22.4375C40.5469 22.4375 40.4414 22.3828 40.3555 22.2734C40.2695 22.1719 40.2266 22.0547 40.2266 21.9219L40.3672 17.4219C40.3672 17.3281 40.332 17.2422 40.2617 17.1641C40.1914 17.0859 40.1094 17.0469 40.0156 17.0469C39.8125 17.0469 39.7109 17.2031 39.7109 17.5156C39.7109 17.8281 39.7617 18.3398 39.8633 19.0508C39.9727 19.7617 40.0273 20.25 40.0273 20.5156C40.0273 21.1094 39.8789 21.4062 39.582 21.4062C39.293 21.4062 39.1484 21.1484 39.1484 20.6328ZM63.8867 23.3164L64.0156 20.1992C64.0156 19.1914 63.9766 18.5547 63.8984 18.2891C63.8281 18.0234 63.7539 17.7891 63.6758 17.5859C63.5977 17.3828 63.4961 17.2188 63.3711 17.0938C63.2461 16.9688 63.0977 16.8516 62.9258 16.7422C62.5977 16.5234 62.082 16.4141 61.3789 16.4141C60.6758 16.4141 60.082 16.6992 59.5977 17.2695C59.1211 17.8398 58.8828 18.5234 58.8828 19.3203C58.8828 19.6172 58.9414 20.0586 59.0586 20.6445C59.1758 21.2383 59.2344 21.6836 59.2344 21.9805C59.2344 22.543 59.0352 22.8242 58.6367 22.8242C58.2383 22.8242 58.0391 22.5508 58.0391 22.0039C58.0391 21.6992 58.0977 21.2422 58.2148 20.6328C58.3398 20.0234 58.4023 19.5625 58.4023 19.25L58.4844 16.1094V2.33984C58.4844 1.85547 58.332 1.46484 58.0273 1.16797L58.2617 0.921875C58.5898 1.23438 58.9805 1.39062 59.4336 1.39062H63.6758C64.1445 1.39062 64.5352 1.23438 64.8477 0.921875L65.082 1.16797C64.7773 1.47266 64.625 1.86328 64.625 2.33984V16.0508C64.625 16.457 64.582 17.1562 64.4961 18.1484C64.4102 19.1484 64.3828 19.918 64.4141 20.457H64.4023C64.6914 21.7539 64.8359 22.7422 64.8359 23.4219C64.8359 24.1016 64.707 24.4414 64.4492 24.4414C64.0742 24.4414 63.8867 24.0664 63.8867 23.3164ZM75.6758 20.4219L75.793 19.2383V17.0469C73.6914 16.9375 72.1211 16.6523 71.082 16.1914C70.043 15.7227 69.2773 15.1367 68.7852 14.4336C68.4883 14.0195 68.2578 13.5586 68.0938 13.0508C67.9375 12.5352 67.6758 12.1484 67.3086 11.8906L67.4844 11.6445C67.8359 11.8789 68.2148 11.9961 68.6211 11.9961C69.0352 11.9961 69.5625 11.9805 70.2031 11.9492C70.8438 11.918 71.5664 11.8828 72.3711 11.8438C73.1758 11.7969 73.75 11.7656 74.0938 11.75C74.4375 11.7344 74.6914 11.6875 74.8555 11.6094C75.0195 11.5234 75.1367 11.3711 75.207 11.1523L75.7344 11.3281C75.7109 11.3906 75.6992 11.4727 75.6992 11.5742C75.6992 11.832 75.9141 12.125 76.3438 12.4531C76.7734 12.7812 77.5508 12.9453 78.6758 12.9453C79.4336 12.9453 79.9727 12.8164 80.293 12.5586C80.4336 12.4414 80.5039 12.3008 80.5039 12.1367C80.5039 11.7539 80.293 11.5 79.8711 11.375C79.4492 11.25 78.9375 11.1445 78.3359 11.0586C77.7422 10.9648 77.1445 10.8906 76.543 10.8359C75.9492 10.7812 75.3047 10.7031 74.6094 10.6016C73.9141 10.5 73.2578 10.3906 72.6406 10.2734C72.0234 10.1484 71.4219 9.96875 70.8359 9.73438C70.2578 9.5 69.7617 9.22656 69.3477 8.91406C68.9336 8.59375 68.5977 8.1875 68.3398 7.69531C68.0898 7.19531 67.9648 6.62891 67.9648 5.99609C67.9648 5.36328 68.0625 4.78516 68.2578 4.26172C68.4609 3.73828 68.7344 3.28906 69.0781 2.91406C69.4219 2.53906 69.8359 2.20703 70.3203 1.91797C70.8125 1.62891 71.3242 1.39453 71.8555 1.21484C72.3945 1.03516 72.9805 0.890625 73.6133 0.78125C74.7148 0.578125 75.7539 0.476562 76.7305 0.476562C77.707 0.476562 78.4492 0.492187 78.957 0.523438C79.4727 0.546875 80.0742 0.597656 80.7617 0.675781C81.457 0.746094 82.082 0.867187 82.6367 1.03906C83.1992 1.20312 83.7539 1.41406 84.3008 1.67188C85.4414 2.20312 86.2422 3.02734 86.7031 4.14453C86.8906 4.54297 87.1484 4.91406 87.4766 5.25781L87.3242 5.52734C86.9961 5.30078 86.6172 5.1875 86.1875 5.1875H86.0352C85.4102 5.21094 84.5156 5.25781 83.3516 5.32812C82.1953 5.39062 81.4492 5.42969 81.1133 5.44531C80.7852 5.46094 80.5469 5.50781 80.3984 5.58594C80.2578 5.66406 80.1562 5.8125 80.0938 6.03125L79.5781 5.89062C79.6016 5.82031 79.6133 5.74609 79.6133 5.66797C79.6133 5.33984 79.3477 5.05859 78.8164 4.82422C78.2852 4.58203 77.6836 4.46094 77.0117 4.46094C75.6992 4.46094 75.043 4.71875 75.043 5.23438C75.043 5.69531 76.0273 6.03125 77.9961 6.24219C78.457 6.29688 78.9805 6.35156 79.5664 6.40625C81.6055 6.61719 83.168 6.89453 84.2539 7.23828C86.5352 7.95703 87.6758 9.32812 87.6758 11.3516C87.6758 12.1797 87.5039 12.9258 87.1602 13.5898C86.8164 14.2461 86.3672 14.7812 85.8125 15.1953C85.2656 15.6094 84.6172 15.9531 83.8672 16.2266C82.5156 16.7188 80.9727 16.9648 79.2383 16.9648C78.7695 16.9648 78.4922 16.9609 78.4062 16.9531C77.9844 16.9531 77.7734 17.2773 77.7734 17.9258V18.207C77.7734 18.418 77.8242 18.7266 77.9258 19.1328C78.0352 19.5469 78.0898 19.8555 78.0898 20.0586C78.0898 20.4727 77.9453 20.6797 77.6562 20.6797C77.5078 20.6797 77.3906 20.6172 77.3047 20.4922C77.2266 20.3672 77.1875 20.2109 77.1875 20.0234C77.1875 19.8359 77.2344 19.5156 77.3281 19.0625C77.4297 18.6172 77.4805 18.293 77.4805 18.0898C77.4805 17.8867 77.4766 17.7422 77.4688 17.6562C77.4688 17.5781 77.457 17.4766 77.4336 17.3516C77.418 17.2344 77.3867 17.1484 77.3398 17.0938C77.2305 16.9531 77.043 16.8828 76.7773 16.8828C76.293 16.8828 76.0508 17.3047 76.0508 18.1484L76.1211 20.0703C76.1211 20.5859 76.0469 20.8438 75.8984 20.8438C75.75 20.8438 75.6758 20.7031 75.6758 20.4219ZM89.9492 4.42578L90.0078 2.92578C90.0078 2.06641 89.8398 1.47266 89.5039 1.14453L89.7383 0.910156C90.0508 1.21484 90.4375 1.36719 90.8984 1.36719H106.285C106.762 1.36719 107.152 1.21484 107.457 0.910156L107.691 1.14453C107.395 1.44141 107.246 1.83203 107.246 2.31641L107.188 3.81641C107.188 4.66016 107.355 5.25 107.691 5.58594L107.457 5.83203C107.105 5.47266 106.535 5.29297 105.746 5.29297L103.156 5.45703C102.336 5.45703 101.746 5.27734 101.387 4.91797L101.141 5.15234C101.445 5.44922 101.598 5.83984 101.598 6.32422V16.0508C101.598 16.8633 101.668 18.0742 101.809 19.6836C101.957 21.293 102.031 22.3516 102.031 22.8594C102.031 23.75 101.871 24.1953 101.551 24.1953C101.23 24.1953 101.07 23.8789 101.07 23.2461C101.07 22.6133 101.121 21.7539 101.223 20.668C101.332 19.5898 101.387 18.7773 101.387 18.2305C101.387 17.3789 101.219 16.9531 100.883 16.9531C100.719 16.9531 100.59 17.0508 100.496 17.2461C100.402 17.4414 100.355 17.6328 100.355 17.8203L100.625 20.2695C100.625 20.832 100.465 21.1133 100.145 21.1133C99.9805 21.1133 99.8594 21.0312 99.7812 20.8672C99.7031 20.7031 99.6641 20.5117 99.6641 20.293C99.6641 20.0742 99.7344 19.7148 99.875 19.2148C100.016 18.7227 100.086 18.3203 100.086 18.0078C100.086 17.6953 99.9492 17.457 99.6758 17.293C99.4102 17.1289 99.0703 17.0469 98.6562 17.0469C98.25 17.0469 97.8242 17.1289 97.3789 17.293C96.9414 17.457 96.5547 17.7109 96.2188 18.0547C95.8828 18.4062 95.7148 18.75 95.7148 19.0859C95.7148 19.4297 95.7656 19.8438 95.8672 20.3281C95.9766 20.8125 96.0312 21.2148 96.0312 21.5352C96.0312 21.8633 95.8867 22.0273 95.5977 22.0273C95.2695 22.0273 95.1055 21.8516 95.1055 21.5C95.1055 21.1562 95.168 20.7188 95.293 20.1875C95.418 19.6562 95.4805 19.2578 95.4805 18.9922V15.9453C95.4961 11.6641 95.5039 8.45703 95.5039 6.32422C95.5039 5.83203 95.6523 5.44141 95.9492 5.15234L95.7148 4.91797C95.3711 5.26953 94.8008 5.44531 94.0039 5.44531L91.4844 5.29297C90.6797 5.29297 90.0977 5.47266 89.7383 5.83203L89.5039 5.58594C89.8008 5.28906 89.9492 4.90234 89.9492 4.42578ZM100.051 22.8828C100.238 23.7422 100.332 24.4883 100.332 25.1211C100.332 25.3945 100.234 25.5312 100.039 25.5312C99.8438 25.5312 99.7461 25.4062 99.7461 25.1562C99.7461 24.4531 99.8477 23.6953 100.051 22.8828ZM116.867 15.0547L116.68 13.6016V13.4727C116.844 13.1836 117.066 13.0391 117.348 13.0391L126.91 13.0508C127.387 13.0508 127.773 12.8984 128.07 12.5938L128.305 12.8281C127.961 13.1719 127.789 13.8281 127.789 14.7969C127.789 14.7969 127.789 15.0234 127.789 15.4766C127.789 16.2656 127.961 16.8398 128.305 17.1992L128.07 17.4336C127.766 17.1289 127.379 16.9766 126.91 16.9766H113.047C112.352 16.9766 111.84 17.1094 111.512 17.375C111.137 17.6875 110.949 18.5703 110.949 20.0234C110.949 20.6094 111.039 21.4727 111.219 22.6133C111.398 23.7617 111.488 24.625 111.488 25.2031C111.488 26.0391 111.191 26.457 110.598 26.457C109.957 26.457 109.637 26.0273 109.637 25.168C109.637 24.582 109.766 23.7148 110.023 22.5664C110.281 21.418 110.41 20.5469 110.41 19.9531L110.352 16.0273V2.36328C110.352 1.87891 110.203 1.49219 109.906 1.20312L110.141 0.957031C110.461 1.26172 110.852 1.41406 111.312 1.41406H126.359C126.836 1.41406 127.227 1.26172 127.531 0.957031L127.766 1.20312C127.422 1.54687 127.25 2.19531 127.25 3.14844V3.80469C127.25 4.64062 127.422 5.22656 127.766 5.5625L127.531 5.78516C127.141 5.38672 126.223 5.1875 124.777 5.1875L118.953 5.45703C117.516 5.45703 116.602 5.25781 116.211 4.85938L115.965 5.09375C116.27 5.39062 116.422 5.78516 116.422 6.27734C116.422 6.76172 116.27 7.15234 115.965 7.44922L116.211 7.67188C116.586 7.28125 117.375 7.08594 118.578 7.08594L123.488 7.35547C124.699 7.35547 125.5 7.16016 125.891 6.76953L126.137 7.00391C125.793 7.34766 125.621 8.00781 125.621 8.98438V9.64062C125.621 10.4453 125.793 11.0273 126.137 11.3867L125.891 11.6328C125.516 11.2422 124.723 11.0469 123.512 11.0469L118.602 11.3047C117.398 11.3047 116.602 11.1094 116.211 10.7188L115.977 10.9531C116.211 11.1875 116.348 11.4688 116.387 11.7969C116.426 12.1172 116.449 12.3477 116.457 12.4883C116.465 12.6211 116.465 12.832 116.457 13.1211C116.449 13.4023 116.445 13.5703 116.445 13.625L116.246 15.0312C116.246 15.3125 116.348 15.4531 116.551 15.4531C116.762 15.4531 116.867 15.3203 116.867 15.0547ZM150.113 20.8438L150.371 18.418C150.371 17.4336 149.969 16.6836 149.164 16.168C148.367 15.6445 147.527 15.4141 146.645 15.4766C145.762 15.5312 145.145 15.8281 144.793 16.3672C144.613 16.625 144.523 16.9297 144.523 17.2812L144.465 20.4219C144.465 20.8516 144.531 21.4883 144.664 22.332C144.797 23.1836 144.863 23.8242 144.863 24.2539C144.863 25.0117 144.648 25.3906 144.219 25.3906C143.789 25.3906 143.574 25.0234 143.574 24.2891C143.574 23.8047 143.645 23.1094 143.785 22.2031C143.926 21.2969 144.004 20.6094 144.02 20.1406C144.043 19.6719 144.055 18.6719 144.055 17.1406C144.055 16.7344 143.93 16.2656 143.68 15.7344C143.43 15.2031 143.035 14.4727 142.496 13.543C141.957 12.6133 141.516 11.793 141.172 11.082L140.82 10.8828C140.633 11.2266 140.301 11.3984 139.824 11.3984L138.84 11.4336C138.168 11.4336 137.664 11.2695 137.328 10.9414L137.082 11.1758C137.105 11.4648 137.117 12.082 137.117 13.0273L137.105 15.8984C137.105 16.7578 137.121 17.3906 137.152 17.7969L137.375 19.5195C137.375 19.8398 137.266 20 137.047 20C136.828 20 136.719 19.8516 136.719 19.5547L136.906 18.1016C136.906 17.75 136.801 17.4688 136.59 17.2578C136.387 17.0547 136.117 16.9531 135.781 16.9531C135.453 16.9531 135.16 17.0977 134.902 17.3867C134.652 17.6836 134.527 18.0664 134.527 18.5352C134.527 19.0039 134.613 19.6367 134.785 20.4336C134.957 21.2383 135.043 21.8164 135.043 22.168C135.043 22.9023 134.781 23.2695 134.258 23.2695C133.734 23.2695 133.473 22.9102 133.473 22.1914C133.473 21.8555 133.547 21.2695 133.695 20.4336C133.852 19.5977 133.93 18.9336 133.93 18.4414C133.93 17.9492 133.816 17.543 133.59 17.2227C133.363 16.9102 133.105 16.7539 132.816 16.7539C132.527 16.7539 132.281 16.8516 132.078 17.0469C131.875 17.25 131.773 17.5 131.773 17.7969L132.09 20.5742C132.09 21.0508 131.914 21.2891 131.562 21.2891C131.211 21.2891 131.035 21.0469 131.035 20.5625C131.035 20.2812 131.109 19.7891 131.258 19.0859C131.406 18.3906 131.477 17.8477 131.469 17.457C131.461 17.0664 131.457 12.0117 131.457 2.29297C131.457 1.80859 131.309 1.42188 131.012 1.13281L131.246 0.898438C131.551 1.19531 131.938 1.34375 132.406 1.34375H142.906C144.547 1.34375 145.648 1.39453 146.211 1.49609C146.781 1.58984 147.277 1.69141 147.699 1.80078C148.129 1.91016 148.488 2.04688 148.777 2.21094C149.074 2.36719 149.371 2.56641 149.668 2.80859C149.973 3.04297 150.215 3.3125 150.395 3.61719C150.809 4.3125 151.016 5.05078 151.016 5.83203C151.016 6.61328 150.953 7.25391 150.828 7.75391C150.711 8.24609 150.512 8.71094 150.23 9.14844C149.621 10.0938 148.551 10.5664 147.02 10.5664L146.926 10.8359C147.418 11.0312 147.746 11.3008 147.91 11.6445C148.598 13.1445 149.105 14.0977 149.434 14.5039C149.762 14.9023 150.066 15.2227 150.348 15.4648C150.629 15.707 151.031 15.9531 151.555 16.2031C152.078 16.4531 152.395 16.6172 152.504 16.6953C152.613 16.7656 152.668 16.8242 152.668 16.8711C152.668 17.6523 152.773 18.6562 152.984 19.8828C153.195 21.1094 153.301 21.8984 153.301 22.25C153.301 22.6016 153.285 22.8555 153.254 23.0117C153.23 23.168 153.172 23.3203 153.078 23.4688C152.984 23.625 152.848 23.7031 152.668 23.7031C152.488 23.7031 152.352 23.5742 152.258 23.3164C152.172 23.0586 152.129 22.7422 152.129 22.3672C152.129 21.9922 152.18 21.3203 152.281 20.3516C152.383 19.3906 152.434 18.6641 152.434 18.1719C152.434 17.1953 152.117 16.707 151.484 16.707C151.172 16.707 150.938 16.7617 150.781 16.8711C150.633 16.9805 150.559 17.2031 150.559 17.5391C150.559 17.8828 150.629 18.4258 150.77 19.168C150.91 19.9102 150.98 20.4688 150.98 20.8438C150.98 21.2266 150.836 21.418 150.547 21.418C150.258 21.418 150.113 21.2266 150.113 20.8438ZM142.309 5.23438L139.543 5.31641C138.41 5.31641 137.672 5.14844 137.328 4.8125L137.082 5.03516C137.395 5.33984 137.551 5.73047 137.551 6.20703V6.99219C137.551 7.46094 137.395 7.85156 137.082 8.16406L137.328 8.39844C137.664 8.05469 138.359 7.88281 139.414 7.88281L142.379 7.98828C143.168 7.98828 143.777 7.88672 144.207 7.68359C144.645 7.47266 144.863 7.08984 144.863 6.53516C144.863 6.18359 144.742 5.91016 144.5 5.71484C144.258 5.51172 143.965 5.38281 143.621 5.32812C143.277 5.26562 142.84 5.23438 142.309 5.23438Z" fill="#57EBA1"/>
</svg>
