<svg width="64" height="133" viewBox="0 0 64 133" fill="none" xmlns="http://www.w3.org/2000/svg">
<path d="M36.5 98.5L37.5 97.5L38 96H42V95H43L45 92L46 93V95.5L47 97.2875V111V114L48 121L48.5 121.5L49 121V98.5L50 98V97V96H51V95V94V93L51.5 92.5L52 93L52.5 94L53 99.5L54 100V105L55 105.5V108L55.5 109L56 108L57 106.5V100.5L56 99.5V98L55.5 93.5L57 92.5L57.5 87.5V86.5V85.5L58 84.5L58.5 84L59 83.5L58 82.5V82L59 81L60 80.5V79V78V76.5V75.5L60.5 74L61 73.5V72.5C60.8333 72.3333 60.5 71.9 60.5 71.5C60.5 71.1 60.8333 71 61 71L60.5 70L60 69.5V64.5L59.5 63.5L59 62.5L58.5 61.5L58 60.5L57 59.5L56.5 58L55 57L54.5 56.5L55 55.5L53.5 55C53.3333 54.8333 53 54.4 53 54C53 53.6 52.3333 53.1667 52 53L51.5 52.5L51 52L50 51L49 50H48.5L47.5 49L46.5 48.5H42L41.5 48V47.5L31.5 41.5L31 40.5L30.5 39.5L29.5 38.5L28 37.5V36L29 34.5L32 33V32H34V33L38 33.5L40 35L46 44H49V41L47 38.5L46 38V36H48V37L49 38L51 39.5L52 41.5L53 43V47L54 47.5L55 47V41.5V40.5L54.5 39.5L54 38L53.5 36L51 33L48 28.5L50.5 30.5H52L53 31L54 33H56L58.5 35.5L59 36V37L59.5 38.5V40V40.5V41.5V43V44.5L60 45.5H61L61.5 45L62 44.5L61.5 43V39.5V37V35.5L61 34.5L60.5 33.5L60 32.5L59.5 31.5L58.5 29V28.5L58 27.5L57.5 27L57 26.5L56.5 25.5V25L55 23.5V22.5V21.5H55.5H56.5L57.5 22L58.5 22.5L59.5 23.5L60 24.5V26V27L60.5 28L61 30L62 31.5L63 32V23.5L62 23L62.5 21L61.5 20.5V19L55.5 13L54.5 12L50 9V7.5H48.5V6H47V4.5H45V3H44H42.5H42V2H41.5H37.5L37 1H32V2H30.5V5.5L29.5 4.5L28.5 3H26.5V4H20L17.5 5L15.5 6.5V7.5L13.5 9.5V10.5L9 15V16V17L7 20V22L6 23V25L7.5 27H11V27.5V28H10L8 29L6 30L5 31V36L6 37V41L7 43H8V47H9V62L10 63H11V60L12 59V57.5L12.5 56L14 54L16 54.5V56H18V57H20V59H20.5V61.5H21.5V62.5V71.5L22.5 72.5L23 74.5L23.5 75H24L25 74L26 73V71.5L25.5 70.5H25V69.5L25.5 66H26V65L27 65.5V62.5V61.5L27.5 61H28L28.5 62.5H29L30 63L31 64H32L34 66V67H36.5L37 67.5H38.5L39 68V69V69.5V70.5L40 71V73V74H39.5V74.5V75.5L38.5 76.5L36.5 78.5L35.5 79.5H35H25.5V79L24.5 78.5H22.5L15.5 72L15 71L14 70L13.5 69L12.5 68L11.5 67H10.5H10V68L10.5 69.5L11.5 70L12.5 71L13 72.5L14 73.5L15 74.5L16 76H15L13.5 74.5L4 61.5L3.5 60.5L3 60H1V61.5L2 63L4 67L5 69L6 72L9 75L10 76.5V78L11 78.5L12 79V80.5L14.5 83.5V84.5L16.5 85.5L19 87.5H16.5L13 84.5H10.5V85V85.5L11 86.5L12 87.5L16 90.5L17.5 92.5L20 95.5V97L21 97.5V99.5L22 100.5V106H23V108H24L25 107V101L26 99.5H30V106.5L31 107.5V113L32 114V126.5L33 132.5H34.5V125.5L34 125V115L34.5 112.5L35.5 110.5V104L36.5 102.5V98.5Z" fill="#57EBA1" stroke="#57EBA1"/>
</svg>
